<svg width="26" height="26" fill="none" xmlns="http://www.w3.org/2000/svg"><path d="M14.083 16.537c-.411.38-.693.612-.715.628l-.384.31-.385-.31s-.303-.249-.715-.628c-1.017.04-2.027.191-3.011.45a2.752 2.752 0 00-1.154.541 3.31 3.31 0 001.511.629 16.68 16.68 0 003.754.384 16.714 16.714 0 003.754-.384 3.31 3.31 0 001.51-.629 2.76 2.76 0 00-1.164-.541 14.14 14.14 0 00-3-.45zM13 10.725a1.24 1.24 0 100-2.481 1.24 1.24 0 000 2.481z" fill="#0055B8"/><path d="M13 15.898a21.022 21.022 0 001.869-1.89c1.408-1.625 2.166-3.093 2.166-4.231v-.292a4.024 4.024 0 10-8.049 0v.265c0 1.143.748 2.61 2.167 4.247a20.97 20.97 0 001.847 1.9zm0-8.856a2.454 2.454 0 110 4.907 2.454 2.454 0 010-4.907z" fill="#0055B8"/><path d="M13 0A13 13 0 000 13 13 13 0 1013 0zm4.333 19.25a17.114 17.114 0 01-4.333.494 17.114 17.114 0 01-4.333-.493c-1.441-.396-2.167-.975-2.167-1.728 0-1.408 2.584-1.923 4.28-2.107a20.89 20.89 0 01-.542-.601c-1.625-1.885-2.465-3.58-2.465-5.038v-.292a5.238 5.238 0 1110.47 0v.265c0 1.457-.828 3.152-2.464 5.037-.184.212-.363.412-.542.602 1.7.184 4.28.698 4.28 2.107-.017.774-.743 1.36-2.184 1.755z" fill="#0055B8"/></svg>