<svg width="26" height="26" fill="none" xmlns="http://www.w3.org/2000/svg"><path d="M7.61 10.048v5.904L10.562 13 7.61 10.048zm7.161 4.425a1.934 1.934 0 01-2.708 0l-.542-.541-2.952 2.952h9.75l-2.952-2.952-.596.541zm-.91-.931l4.426-4.426h-9.75l4.414 4.426a.644.644 0 00.91 0z" fill="#0055B8"/><path d="M13 0A13 13 0 000 13 13 13 0 1013 0zm7.486 16.218a1.934 1.934 0 01-1.934 1.933H8.26a1.934 1.934 0 01-1.933-1.933V9.783A1.934 1.934 0 018.26 7.849h10.292a1.934 1.934 0 011.934 1.934v6.435z" fill="#0055B8"/><path d="M19.202 15.952v-5.904L16.25 13l2.952 2.952z" fill="#0055B8"/></svg>